<svg id="Layer_1" data-name="Layer 1" xmlns="http://www.w3.org/2000/svg" viewBox="0 0 2013.56 11909.78"><defs><style>.cls-1{fill:none;}.cls-2{fill:#c2ff00;}</style></defs><title>background</title><polygon class="cls-1" points="1741.52 3552.47 1741.52 3896.48 1003.21 3896.48 1003.21 3896.15 703.24 3896.15 703.24 5044.13 887.2 5044.13 887.2 5241.34 371.79 5241.34 371.79 3272.62 688.33 3272.62 688.33 3552.47 843.28 3552.47 843.28 3552.59 1564.19 3552.59 1564.19 3552.47 1741.52 3552.47"/><polygon class="cls-1" points="1741.52 1765.62 1741.52 2003.5 801.54 2003.5 801.54 2440.5 299.97 2440.5 299.97 1425.18 878.92 1425.18 878.92 1765.62 1741.52 1765.62"/><polygon class="cls-2" points="1828.63 2671.73 1828.48 2671.73 1828.52 2775.07 1828.52 3552.47 1741.52 3552.47 1741.52 2003.5 1828.63 2003.5 1828.63 2671.73"/><rect class="cls-2" x="1741.52" y="94.21" width="25.43" height="1671.41"/><polygon class="cls-2" points="2013.56 11515.22 2013.56 11815.18 1480.61 11815.18 1480.61 11515.22 1480.71 11515.22 1480.71 10564.91 1042.36 10564.91 1042.36 11112.64 1226.32 11112.64 1226.32 11909.78 111.4 11909.78 111.4 11667.91 110.98 11667.91 110.98 9341.11 410.95 9341.11 410.95 9341.13 727.48 9341.13 727.48 9341.11 1027.45 9341.11 1027.45 9621.1 1567.72 9621.1 1567.72 9143.54 1567.82 9040.2 1567.82 8671.93 1140.66 8671.93 1140.66 9108.93 39.16 9108.93 39.16 7493.68 1218.04 7493.68 1218.04 7834.12 1506.14 7834.12 1506.14 6762.65 1188.66 6762.65 1188.66 7214.85 145.05 7214.85 145.05 6368.47 145.21 6368.47 145.21 5810.47 445.21 5810.47 445.21 5812.47 1441.21 5812.47 1441.21 5384.47 1441.45 5384.47 1441.45 5146.74 1441.55 5146.74 1441.55 4196.44 1003.21 4196.44 1003.21 4744.16 1187.17 4744.16 1187.17 5541.31 72.24 5541.31 72.24 5299.43 71.83 5299.43 71.83 2972.64 371.79 2972.64 371.79 2972.66 688.33 2972.66 688.33 2972.64 988.29 2972.64 988.29 3252.63 1528.56 3252.63 1528.56 2775.07 1528.66 2671.73 1528.66 2303.46 1101.5 2303.46 1101.5 2740.46 0 2740.46 0 1125.21 1178.89 1125.21 1178.89 1465.65 1466.99 1465.65 1466.99 394.18 1149.51 394.18 1149.51 846.38 105.89 846.38 105.89 0 405.86 0 405.86 546.41 849.54 546.41 849.54 94.21 1741.52 94.21 1741.52 1765.62 878.92 1765.62 878.92 1425.18 299.97 1425.18 299.97 2440.5 801.54 2440.5 801.54 2003.5 1741.52 2003.5 1741.52 3552.47 1564.19 3552.47 1564.19 3552.59 843.28 3552.59 843.28 3552.47 688.33 3552.47 688.33 3272.62 371.79 3272.62 371.79 5241.34 887.2 5241.34 887.2 5044.13 703.24 5044.13 703.24 3896.15 1003.21 3896.15 1003.21 3896.48 1741.52 3896.48 1741.52 5446.71 1741.21 5446.71 1741.21 5384.47 1740.99 5384.47 1740.99 5446.71 1741.21 5446.71 1741.21 6112.47 445.21 6112.47 445.21 6369.47 445.01 6369.47 445.01 6914.88 888.7 6914.88 888.7 6462.68 1806.11 6462.68 1806.11 8134.09 918.08 8134.09 918.08 7793.65 339.13 7793.65 339.13 8808.97 840.69 8808.97 840.69 8371.97 1867.78 8371.97 1867.78 9040.2 1867.63 9040.2 1867.68 9143.54 1867.68 9920.94 1603.35 9920.94 1603.35 9921.07 882.44 9921.07 882.44 9920.95 727.48 9920.95 727.48 9641.09 410.95 9641.09 410.95 11609.81 926.36 11609.81 926.36 11412.6 742.4 11412.6 742.4 10264.62 1042.36 10264.62 1042.36 10264.95 1781.09 10264.95 1781.09 10564.91 1780.67 10564.91 1780.67 11515.22 2013.56 11515.22"/><rect class="cls-2" x="1740.99" y="5384.47" width="0.22" height="62.24"/><rect class="cls-2" x="1741.52" y="3896.48" width="0.41" height="299.96"/><rect class="cls-2" x="1740.99" y="5384.47" width="0.22" height="62.24"/></svg>